<svg width="157" height="208" viewBox="0 0 157 208" fill="none" xmlns="http://www.w3.org/2000/svg">
<path d="M24.28 96.33C24.28 107.087 27.4699 117.603 33.4464 126.547C39.4228 135.492 47.9174 142.463 57.8559 146.58C67.7943 150.696 78.7303 151.774 89.281 149.675C99.8316 147.576 109.523 142.396 117.13 134.79C124.736 127.183 129.916 117.492 132.015 106.941C134.114 96.3903 133.036 85.4543 128.92 75.5159C124.803 65.5774 117.832 57.0828 108.887 51.1064C99.9431 45.1299 89.4273 41.94 78.67 41.94C64.2449 41.94 50.4106 47.6704 40.2105 57.8705C30.0104 68.0706 24.28 81.9049 24.28 96.33V96.33ZM52 71.15H73.79V93H52V71.15ZM62.9 120.42C60.9593 120.422 59.0617 119.848 57.4471 118.772C55.8326 117.695 54.5736 116.163 53.8296 114.371C53.0856 112.579 52.8899 110.606 53.2673 108.702C53.6447 106.799 54.5782 105.05 55.9498 103.677C57.3213 102.304 59.0693 101.369 60.9725 100.989C62.8757 100.61 64.8487 100.804 66.6418 101.546C68.4349 102.288 69.9676 103.545 71.046 105.159C72.1244 106.772 72.7 108.669 72.7 110.61C72.7 113.212 71.6665 115.707 69.8267 117.547C67.987 119.386 65.4918 120.42 62.89 120.42H62.9ZM105.36 121.51H83.56V99.72H105.35L105.36 121.51ZM103.17 82.05C103.17 83.9883 102.595 85.883 101.518 87.4946C100.442 89.1062 98.911 90.3623 97.1203 91.104C95.3296 91.8458 93.3591 92.0398 91.4581 91.6617C89.5571 91.2836 87.8109 90.3502 86.4404 88.9796C85.0698 87.6091 84.1364 85.8629 83.7583 83.9619C83.3802 82.0609 83.5742 80.0904 84.316 78.2997C85.0577 76.509 86.3138 74.9784 87.9254 73.9016C89.537 72.8248 91.4317 72.25 93.37 72.25C95.9666 72.2553 98.4551 73.2898 100.29 75.1268C102.125 76.9638 103.157 79.4534 103.16 82.05H103.17Z" fill="white"/>
<path d="M73.79 71.15H51.99V92.95H73.79V71.15Z" fill="#AFAEAE"/>
<path d="M105.36 99.72H83.56V121.52H105.36V99.72Z" fill="#CECECE"/>
<path d="M93.36 91.85C98.7724 91.85 103.16 87.4624 103.16 82.05C103.16 76.6376 98.7724 72.25 93.36 72.25C87.9476 72.25 83.56 76.6376 83.56 82.05C83.56 87.4624 87.9476 91.85 93.36 91.85Z" fill="#1C2044"/>
<path d="M62.89 120.41C68.3024 120.41 72.69 116.022 72.69 110.61C72.69 105.198 68.3024 100.81 62.89 100.81C57.4776 100.81 53.09 105.198 53.09 110.61C53.09 116.022 57.4776 120.41 62.89 120.41Z" fill="#1C2044"/>
<path d="M156.77 44.65L78.67 0.650002L38.33 23.35V10.18H24.28V31.3L0.57 44.65H21.71C8.50099 59.1988 1.36441 78.2534 1.76612 97.8999C2.16783 117.546 10.0773 136.293 23.87 150.29V150.29L78.68 207.69L130.23 153.42C137.74 146.641 143.838 138.447 148.175 129.307C152.513 120.168 155.004 110.262 155.506 100.158C156.009 90.0535 154.513 79.9494 151.104 70.4244C147.695 60.8994 142.44 52.1406 135.64 44.65H156.77ZM133.06 96.33C133.06 107.087 129.87 117.603 123.894 126.547C117.917 135.492 109.423 142.463 99.4841 146.58C89.5457 150.696 78.6097 151.774 68.059 149.675C57.5084 147.576 47.817 142.396 40.2105 134.79C32.6039 127.183 27.4237 117.492 25.3251 106.941C23.2264 96.3903 24.3035 85.4543 28.4202 75.5159C32.5368 65.5774 39.5081 57.0828 48.4525 51.1064C57.3969 45.1299 67.9127 41.94 78.67 41.94C85.8126 41.94 92.8852 43.3468 99.4841 46.0802C106.083 48.8135 112.079 52.8199 117.13 57.8705C122.18 62.921 126.186 68.917 128.92 75.5159C131.653 82.1148 133.06 89.1874 133.06 96.33V96.33Z" fill="#1C2044"/>
</svg>
